<?xml version="1.0" encoding="UTF-8"?>
<!--Generator: Apple Native CoreSVG 232.5-->
<!DOCTYPE svg
PUBLIC "-//W3C//DTD SVG 1.1//EN"
       "http://www.w3.org/Graphics/SVG/1.1/DTD/svg11.dtd">
<svg version="1.1" xmlns="http://www.w3.org/2000/svg" xmlns:xlink="http://www.w3.org/1999/xlink" width="3300" height="2200">
 <!--glyph: "", point size: 100.0, font version: "19.2d2e1", template writer version: "128"-->
 <style>.monochrome-0 {-sfsymbols-variable-threshold:0.0;-sfsymbols-motion-group:4}
.monochrome-1 {opacity:0.0;-sfsymbols-clear-behind:true;-sfsymbols-motion-group:3}
.monochrome-2 {-sfsymbols-variable-threshold:0.34;-sfsymbols-motion-group:2}
.monochrome-3 {opacity:0.0;-sfsymbols-clear-behind:true;-sfsymbols-motion-group:1}
.monochrome-4 {-sfsymbols-variable-threshold:0.68;-sfsymbols-motion-group:0}

.multicolor-0:custom {fill:#0AAF97;opacity:0.25;-sfsymbols-variable-threshold:0.0;-sfsymbols-motion-group:4}
.multicolor-1:tintColor {opacity:0.0;-sfsymbols-clear-behind:true;-sfsymbols-motion-group:3}
.multicolor-2:custom {fill:#02AF97;opacity:0.5;-sfsymbols-variable-threshold:0.34;-sfsymbols-motion-group:2}
.multicolor-3:tintColor {opacity:0.0;-sfsymbols-clear-behind:true;-sfsymbols-motion-group:1}
.multicolor-4:custom {fill:#00AF97;-sfsymbols-variable-threshold:0.68;-sfsymbols-motion-group:0}

.hierarchical-0:tertiary {-sfsymbols-variable-threshold:0.0;-sfsymbols-motion-group:4}
.hierarchical-1:primary {opacity:0.0;-sfsymbols-clear-behind:true;-sfsymbols-motion-group:3}
.hierarchical-2:secondary {-sfsymbols-variable-threshold:0.34;-sfsymbols-motion-group:2}
.hierarchical-3:primary {opacity:0.0;-sfsymbols-clear-behind:true;-sfsymbols-motion-group:1}
.hierarchical-4:primary {-sfsymbols-variable-threshold:0.68;-sfsymbols-motion-group:0}

.SFSymbolsPreviewWireframe {fill:none;opacity:1.0;stroke:black;stroke-width:0.5}
</style>
 <g id="Notes">
  <rect height="2200" id="artboard" style="fill:white;opacity:1" width="3300" x="0" y="0"/>
  <line style="fill:none;stroke:black;opacity:1;stroke-width:0.5;" x1="263" x2="3036" y1="292" y2="292"/>
  <text style="stroke:none;fill:black;font-family:sans-serif;font-size:13;font-weight:bold;" transform="matrix(1 0 0 1 263 322)">Weight/Scale Variations</text>
  <text style="stroke:none;fill:black;font-family:sans-serif;font-size:13;text-anchor:middle;" transform="matrix(1 0 0 1 559.711 322)">Ultralight</text>
  <text style="stroke:none;fill:black;font-family:sans-serif;font-size:13;text-anchor:middle;" transform="matrix(1 0 0 1 856.422 322)">Thin</text>
  <text style="stroke:none;fill:black;font-family:sans-serif;font-size:13;text-anchor:middle;" transform="matrix(1 0 0 1 1153.13 322)">Light</text>
  <text style="stroke:none;fill:black;font-family:sans-serif;font-size:13;text-anchor:middle;" transform="matrix(1 0 0 1 1449.84 322)">Regular</text>
  <text style="stroke:none;fill:black;font-family:sans-serif;font-size:13;text-anchor:middle;" transform="matrix(1 0 0 1 1746.56 322)">Medium</text>
  <text style="stroke:none;fill:black;font-family:sans-serif;font-size:13;text-anchor:middle;" transform="matrix(1 0 0 1 2043.27 322)">Semibold</text>
  <text style="stroke:none;fill:black;font-family:sans-serif;font-size:13;text-anchor:middle;" transform="matrix(1 0 0 1 2339.98 322)">Bold</text>
  <text style="stroke:none;fill:black;font-family:sans-serif;font-size:13;text-anchor:middle;" transform="matrix(1 0 0 1 2636.69 322)">Heavy</text>
  <text style="stroke:none;fill:black;font-family:sans-serif;font-size:13;text-anchor:middle;" transform="matrix(1 0 0 1 2933.4 322)">Black</text>
  <line style="fill:none;stroke:black;opacity:1;stroke-width:0.5;" x1="263" x2="3036" y1="1903" y2="1903"/>
  <g transform="matrix(0.2 0 0 0.2 263 1933)">
   <path d="m46.2402 4.15039c21.5332 0 39.4531-17.8711 39.4531-39.4043s-17.9688-39.4043-39.502-39.4043c-21.4844 0-39.3555 17.8711-39.3555 39.4043s17.9199 39.4043 39.4043 39.4043Zm0-7.42188c-17.7246 0-31.8848-14.209-31.8848-31.9824s14.1113-31.9824 31.8359-31.9824c17.7734 0 32.0312 14.209 32.0312 31.9824s-14.209 31.9824-31.9824 31.9824Zm-17.9688-31.9824c0 2.14844 1.51367 3.61328 3.75977 3.61328h10.498v10.5957c0 2.19727 1.46484 3.71094 3.61328 3.71094 2.24609 0 3.71094-1.51367 3.71094-3.71094v-10.5957h10.5957c2.19727 0 3.71094-1.46484 3.71094-3.61328 0-2.19727-1.51367-3.71094-3.71094-3.71094h-10.5957v-10.5469c0-2.24609-1.46484-3.75977-3.71094-3.75977-2.14844 0-3.61328 1.51367-3.61328 3.75977v10.5469h-10.498c-2.24609 0-3.75977 1.51367-3.75977 3.71094Z"/>
  </g>
  <g transform="matrix(0.2 0 0 0.2 281.506 1933)">
   <path d="m58.5449 14.5508c27.2461 0 49.8047-22.6074 49.8047-49.8047 0-27.2461-22.6074-49.8047-49.8535-49.8047-27.1973 0-49.7559 22.5586-49.7559 49.8047 0 27.1973 22.6074 49.8047 49.8047 49.8047Zm0-8.30078c-23.0469 0-41.4551-18.457-41.4551-41.5039s18.3594-41.5039 41.4062-41.5039 41.5527 18.457 41.5527 41.5039-18.457 41.5039-41.5039 41.5039Zm-22.6562-41.5039c0 2.39258 1.66016 4.00391 4.15039 4.00391h14.3555v14.4043c0 2.44141 1.66016 4.15039 4.05273 4.15039 2.44141 0 4.15039-1.66016 4.15039-4.15039v-14.4043h14.4043c2.44141 0 4.15039-1.61133 4.15039-4.00391 0-2.44141-1.70898-4.15039-4.15039-4.15039h-14.4043v-14.3555c0-2.49023-1.70898-4.19922-4.15039-4.19922-2.39258 0-4.05273 1.70898-4.05273 4.19922v14.3555h-14.3555c-2.49023 0-4.15039 1.70898-4.15039 4.15039Z"/>
  </g>
  <g transform="matrix(0.2 0 0 0.2 304.924 1933)">
   <path d="m74.8535 28.3203c34.8145 0 63.623-28.8086 63.623-63.5742 0-34.8145-28.8574-63.623-63.6719-63.623-34.7656 0-63.5254 28.8086-63.5254 63.623 0 34.7656 28.8086 63.5742 63.5742 63.5742Zm0-9.08203c-30.1758 0-54.4434-24.3164-54.4434-54.4922 0-30.2246 24.2188-54.4922 54.3945-54.4922 30.2246 0 54.541 24.2676 54.541 54.4922 0 30.1758-24.2676 54.4922-54.4922 54.4922Zm-28.8574-54.4922c0 2.58789 1.85547 4.39453 4.58984 4.39453h19.7266v19.7754c0 2.68555 1.85547 4.58984 4.44336 4.58984 2.68555 0 4.54102-1.85547 4.54102-4.58984v-19.7754h19.7754c2.68555 0 4.58984-1.80664 4.58984-4.39453 0-2.73438-1.85547-4.58984-4.58984-4.58984h-19.7754v-19.7266c0-2.73438-1.85547-4.63867-4.54102-4.63867-2.58789 0-4.44336 1.9043-4.44336 4.63867v19.7266h-19.7266c-2.73438 0-4.58984 1.85547-4.58984 4.58984Z"/>
  </g>
  <text style="stroke:none;fill:black;font-family:sans-serif;font-size:13;font-weight:bold;" transform="matrix(1 0 0 1 263 1953)">Design Variations</text>
  <text style="stroke:none;fill:black;font-family:sans-serif;font-size:13;" transform="matrix(1 0 0 1 263 1971)">Symbols are supported in up to nine weights and three scales.</text>
  <text style="stroke:none;fill:black;font-family:sans-serif;font-size:13;" transform="matrix(1 0 0 1 263 1989)">For optimal layout with text and other symbols, vertically align</text>
  <text style="stroke:none;fill:black;font-family:sans-serif;font-size:13;" transform="matrix(1 0 0 1 263 2007)">symbols with the adjacent text.</text>
  <line style="fill:none;stroke:#00AEEF;stroke-width:0.5;opacity:1.0;" x1="776" x2="776" y1="1919" y2="1933"/>
  <g transform="matrix(0.2 0 0 0.2 776 1933)">
   <path d="m16.5527 0.78125c2.58789 0 3.85742-0.976562 4.78516-3.71094l6.29883-17.2363h28.8086l6.29883 17.2363c0.927734 2.73438 2.19727 3.71094 4.73633 3.71094 2.58789 0 4.24805-1.5625 4.24805-4.00391 0-0.830078-0.146484-1.61133-0.537109-2.63672l-22.9004-60.9863c-1.12305-2.97852-3.125-4.49219-6.25-4.49219-3.02734 0-5.07812 1.46484-6.15234 4.44336l-22.9004 61.084c-0.390625 1.02539-0.537109 1.80664-0.537109 2.63672 0 2.44141 1.5625 3.95508 4.10156 3.95508Zm13.4766-28.3691 11.8652-32.8613h0.244141l11.8652 32.8613Z"/>
  </g>
  <line style="fill:none;stroke:#00AEEF;stroke-width:0.5;opacity:1.0;" x1="792.836" x2="792.836" y1="1919" y2="1933"/>
  <text style="stroke:none;fill:black;font-family:sans-serif;font-size:13;font-weight:bold;" transform="matrix(1 0 0 1 776 1953)">Margins</text>
  <text style="stroke:none;fill:black;font-family:sans-serif;font-size:13;" transform="matrix(1 0 0 1 776 1971)">Leading and trailing margins on the left and right side of each symbol</text>
  <text style="stroke:none;fill:black;font-family:sans-serif;font-size:13;" transform="matrix(1 0 0 1 776 1989)">can be adjusted by modifying the x-location of the margin guidelines.</text>
  <text style="stroke:none;fill:black;font-family:sans-serif;font-size:13;" transform="matrix(1 0 0 1 776 2007)">Modifications are automatically applied proportionally to all</text>
  <text style="stroke:none;fill:black;font-family:sans-serif;font-size:13;" transform="matrix(1 0 0 1 776 2025)">scales and weights.</text>
  <g transform="matrix(0.2 0 0 0.2 1289 1933)">
   <path d="m14.209 9.32617 8.49609 8.54492c4.29688 4.3457 9.22852 4.05273 13.8672-1.07422l53.4668-58.9355-4.83398-4.88281-53.0762 58.3984c-1.75781 2.00195-3.41797 2.49023-5.76172 0.146484l-5.85938-5.81055c-2.34375-2.29492-1.80664-4.00391 0.195312-5.81055l57.373-54.0039-4.88281-4.83398-57.959 54.4434c-4.93164 4.58984-5.32227 9.47266-1.02539 13.8184Zm32.0801-90.9668c-2.09961 2.05078-2.24609 4.93164-1.07422 6.88477 1.17188 1.80664 3.4668 2.97852 6.68945 2.14844 7.32422-1.70898 14.9414-2.00195 22.0703 2.68555l-2.92969 7.27539c-1.70898 4.15039-0.830078 7.08008 1.85547 9.81445l11.4746 11.5723c2.44141 2.44141 4.49219 2.53906 7.32422 2.05078l5.32227-0.976562 3.32031 3.36914-0.195312 2.7832c-0.195312 2.49023 0.439453 4.39453 2.88086 6.78711l3.80859 3.71094c2.39258 2.39258 5.46875 2.53906 7.8125 0.195312l14.5508-14.5996c2.34375-2.34375 2.24609-5.32227-0.146484-7.71484l-3.85742-3.80859c-2.39258-2.39258-4.24805-3.17383-6.64062-2.97852l-2.88086 0.244141-3.22266-3.17383 1.2207-5.61523c0.634766-2.83203-0.146484-5.0293-3.07617-7.95898l-10.9863-10.9375c-16.6992-16.6016-38.8672-16.2109-53.3203-1.75781Zm7.4707 1.85547c12.1582-8.88672 28.6133-7.37305 39.7461 3.75977l12.1582 12.0605c1.17188 1.17188 1.36719 2.09961 1.02539 3.80859l-1.61133 7.42188 7.51953 7.42188 4.93164-0.292969c1.26953-0.0488281 1.66016 0.0488281 2.63672 1.02539l2.88086 2.88086-12.207 12.207-2.88086-2.88086c-0.976562-0.976562-1.12305-1.36719-1.07422-2.68555l0.341797-4.88281-7.4707-7.42188-7.61719 1.26953c-1.61133 0.341797-2.34375 0.195312-3.56445-0.976562l-10.0098-10.0098c-1.26953-1.17188-1.41602-2.00195-0.634766-3.85742l4.39453-10.4492c-7.8125-7.27539-17.9688-10.4004-28.125-7.42188-0.78125 0.195312-1.07422-0.439453-0.439453-0.976562Z"/>
  </g>
  <text style="stroke:none;fill:black;font-family:sans-serif;font-size:13;font-weight:bold;" transform="matrix(1 0 0 1 1289 1953)">Exporting</text>
  <text style="stroke:none;fill:black;font-family:sans-serif;font-size:13;" transform="matrix(1 0 0 1 1289 1971)">Symbols should be outlined when exporting to ensure the</text>
  <text style="stroke:none;fill:black;font-family:sans-serif;font-size:13;" transform="matrix(1 0 0 1 1289 1989)">design is preserved when submitting to Xcode.</text>
  <text id="template-version" style="stroke:none;fill:black;font-family:sans-serif;font-size:13;text-anchor:end;" transform="matrix(1 0 0 1 3036 1933)">Template v.5.0</text>
  <text style="stroke:none;fill:black;font-family:sans-serif;font-size:13;text-anchor:end;" transform="matrix(1 0 0 1 3036 1951)">Requires Xcode 15 or greater</text>
  <text id="descriptive-name" style="stroke:none;fill:black;font-family:sans-serif;font-size:13;text-anchor:end;" transform="matrix(1 0 0 1 3036 1969)">Generated from clipchop.fill</text>
  <text style="stroke:none;fill:black;font-family:sans-serif;font-size:13;text-anchor:end;" transform="matrix(1 0 0 1 3036 1987)">Typeset at 100.0 points</text>
  <text style="stroke:none;fill:black;font-family:sans-serif;font-size:13;" transform="matrix(1 0 0 1 263 726)">Small</text>
  <text style="stroke:none;fill:black;font-family:sans-serif;font-size:13;" transform="matrix(1 0 0 1 263 1156)">Medium</text>
  <text style="stroke:none;fill:black;font-family:sans-serif;font-size:13;" transform="matrix(1 0 0 1 263 1586)">Large</text>
 </g>
 <g id="Guides">
  <g id="H-reference" style="fill:#27AAE1;stroke:none;" transform="matrix(1 0 0 1 339 696)">
   <path d="M0.993654 0L3.63775 0L29.3281-67.1323L30.0303-67.1323L30.0303-70.459L28.1226-70.459ZM11.6885-24.4799L46.9815-24.4799L46.2315-26.7285L12.4385-26.7285ZM55.1196 0L57.7637 0L30.6382-70.459L29.4326-70.459L29.4326-67.1323Z"/>
  </g>
  <line id="Baseline-S" style="fill:none;stroke:#27AAE1;opacity:1;stroke-width:0.5;" x1="263" x2="3036" y1="696" y2="696"/>
  <line id="Capline-S" style="fill:none;stroke:#27AAE1;opacity:1;stroke-width:0.5;" x1="263" x2="3036" y1="625.541" y2="625.541"/>
  <g id="H-reference" style="fill:#27AAE1;stroke:none;" transform="matrix(1 0 0 1 339 1126)">
   <path d="M0.993654 0L3.63775 0L29.3281-67.1323L30.0303-67.1323L30.0303-70.459L28.1226-70.459ZM11.6885-24.4799L46.9815-24.4799L46.2315-26.7285L12.4385-26.7285ZM55.1196 0L57.7637 0L30.6382-70.459L29.4326-70.459L29.4326-67.1323Z"/>
  </g>
  <line id="Baseline-M" style="fill:none;stroke:#27AAE1;opacity:1;stroke-width:0.5;" x1="263" x2="3036" y1="1126" y2="1126"/>
  <line id="Capline-M" style="fill:none;stroke:#27AAE1;opacity:1;stroke-width:0.5;" x1="263" x2="3036" y1="1055.54" y2="1055.54"/>
  <g id="H-reference" style="fill:#27AAE1;stroke:none;" transform="matrix(1 0 0 1 339 1556)">
   <path d="M0.993654 0L3.63775 0L29.3281-67.1323L30.0303-67.1323L30.0303-70.459L28.1226-70.459ZM11.6885-24.4799L46.9815-24.4799L46.2315-26.7285L12.4385-26.7285ZM55.1196 0L57.7637 0L30.6382-70.459L29.4326-70.459L29.4326-67.1323Z"/>
  </g>
  <line id="Baseline-L" style="fill:none;stroke:#27AAE1;opacity:1;stroke-width:0.5;" x1="263" x2="3036" y1="1556" y2="1556"/>
  <line id="Capline-L" style="fill:none;stroke:#27AAE1;opacity:1;stroke-width:0.5;" x1="263" x2="3036" y1="1485.54" y2="1485.54"/>
  <line id="left-margin-Ultralight-S" style="fill:none;stroke:#FF3B30;stroke-width:0.5;opacity:1.0;" x1="519.311" x2="519.311" y1="600.785" y2="720.121"/>
  <line id="right-margin-Ultralight-S" style="fill:none;stroke:#FF3B30;stroke-width:0.5;opacity:1.0;" x1="600.111" x2="600.111" y1="600.785" y2="720.121"/>
  <line id="left-margin-Regular-S" style="fill:none;stroke:#FF3B30;stroke-width:0.5;opacity:1.0;" x1="1407.59" x2="1407.59" y1="600.785" y2="720.121"/>
  <line id="right-margin-Regular-S" style="fill:none;stroke:#FF3B30;stroke-width:0.5;opacity:1.0;" x1="1492.09" x2="1492.09" y1="600.785" y2="720.121"/>
  <line id="left-margin-Black-S" style="fill:none;stroke:#FF3B30;stroke-width:0.5;opacity:1.0;" x1="2887.7" x2="2887.7" y1="600.785" y2="720.121"/>
  <line id="right-margin-Black-S" style="fill:none;stroke:#FF3B30;stroke-width:0.5;opacity:1.0;" x1="2979.1" x2="2979.1" y1="600.785" y2="720.121"/>
 </g>
 <g id="Symbols">
  <g id="Black-S" transform="matrix(1 0 0 1 2887.7 696)">
   <path class="SFSymbolsPreviewWireframe" d="M1.2-17.5C3.4-7.2 10.6-3.3 20.8-5.5L55.8-12.9C65.9-15.1 71-21.4 68.8-31.8L59.1-77.2C56.9-87.5 49.7-91.4 39.5-89.2L4.5-81.8C-5.6-79.6-10.7-73.1-8.5-62.9L1.2-17.5Z"/>
   <path class="monochrome-0 multicolor-0:custom hierarchical-0:tertiary SFSymbolsPreviewWireframe" d="M8.1-24C9.8-15.9 14.7-12.6 22.7-14.3L50.4-20.2C58.4-21.9 61.6-26.8 59.8-35L52.2-70.9C50.5-79 45.6-82.3 37.6-80.6L9.9-74.6C1.9-72.9-1.3-67.9 0.5-59.8L8.1-24Z"/>
   <path class="monochrome-1 multicolor-1:tintColor hierarchical-1:primary SFSymbolsPreviewWireframe" d="M8.9-16.5C8.9-6 15.2-0.7 25.6-0.7L61.4-0.7C71.8-0.7 78.1-5.9 78.1-16.5L78.1-62.9C78.1-73.4 71.8-78.7 61.4-78.7L25.6-78.7C15.2-78.7 8.9-73.4 8.9-62.9L8.9-16.5Z"/>
   <path class="monochrome-2 multicolor-2:custom hierarchical-2:secondary SFSymbolsPreviewWireframe" d="M17-21.3C17-13 21.1-8.8 29.3-8.8L57.6-8.8C65.8-8.8 69.9-12.9 69.9-21.3L69.9-58C69.9-66.3 65.8-70.5 57.6-70.5L29.3-70.5C21.1-70.5 17-66.3 17-58L17-21.3Z"/>
   <path class="monochrome-3 multicolor-3:tintColor hierarchical-3:primary SFSymbolsPreviewWireframe" d="M13.8-9.7C11.6 0.5 16.7 7 26.8 9.2L61.8 16.6C72 18.8 79.2 15 81.4 4.6L91.1-40.8C93.3-51.1 88.2-57.6 78.1-59.7L43.1-67.1C33-69.3 25.7-65.4 23.5-55.1L13.8-9.7Z"/>
   <path class="monochrome-4 multicolor-4:custom hierarchical-4:primary SFSymbolsPreviewWireframe" d="M22.7-12.8C21-4.7 24.2 0.3 32.2 2L59.9 7.9C67.9 9.6 72.8 6.4 74.5-1.8L82.1-37.7C83.8-45.8 80.7-50.8 72.7-52.5L45-58.4C37-60.1 32.1-56.8 30.4-48.7L22.7-12.8ZM36.2-17.6C34.6-17.9 33.8-19.3 34.1-20.8C34.4-22.3 35.7-23.1 37.3-22.8L65.2-16.9C66.7-16.6 67.5-15.3 67.2-13.8C66.9-12.3 65.5-11.4 64.1-11.7L36.2-17.6ZM34.3-8.6C32.7-8.9 31.9-10.2 32.2-11.7C32.5-13.2 33.8-14.1 35.4-13.8L48.4-11C49.9-10.7 50.7-9.3 50.4-7.8C50.1-6.3 48.8-5.5 47.3-5.8L34.3-8.6ZM39.1-26.1C37.1-26.5 35.8-28.4 36.2-30.3C36.6-32.4 38.6-33.5 40.6-33.1C42.6-32.7 43.9-30.8 43.5-28.8C43.1-26.8 41-25.7 39.1-26.1Z"/>
  </g>
  <g id="Regular-S" transform="matrix(1 0 0 1 1407.59 696)">
   <path class="SFSymbolsPreviewWireframe" d="M3.8-20.3C5.8-11 12.4-7.4 21.6-9.4L53.4-16.2C62.6-18.2 67.2-24 65.2-33.4L56.4-74.7C54.4-84 47.8-87.6 38.6-85.6L6.8-78.8C-2.4-76.8-7-70.9-5-61.6L3.8-20.3Z"/>
   <path class="monochrome-0 multicolor-0:custom hierarchical-0:tertiary SFSymbolsPreviewWireframe" d="M8.1-24C9.8-15.9 14.7-12.6 22.7-14.3L50.4-20.2C58.4-21.9 61.6-26.8 59.8-35L52.2-70.9C50.5-79 45.6-82.3 37.6-80.6L9.9-74.7C1.9-73-1.3-68 0.5-59.9L8.1-24Z"/>
   <path class="monochrome-1 multicolor-1:tintColor hierarchical-1:primary SFSymbolsPreviewWireframe" d="M12.1-18.6C12.1-9.1 17.8-4.2 27.2-4.2L59.7-4.2C69.1-4.2 74.8-8.9 74.8-18.6L74.8-60.8C74.8-70.3 69.1-75.2 59.7-75.2L27.2-75.2C17.8-75.2 12.1-70.4 12.1-60.8L12.1-18.6Z"/>
   <path class="monochrome-2 multicolor-2:custom hierarchical-2:secondary SFSymbolsPreviewWireframe" d="M17.1-21.4C17.1-13.1 21.2-8.9 29.4-8.9L57.7-8.9C65.9-8.9 70-13 70-21.4L70-58.1C70-66.4 65.9-70.6 57.7-70.6L29.4-70.6C21.2-70.6 17.1-66.4 17.1-58.1L17.1-21.4Z"/>
   <path class="monochrome-3 multicolor-3:tintColor hierarchical-3:primary SFSymbolsPreviewWireframe" d="M17.3-11.2C15.3-1.9 19.9 4 29.1 6L60.9 12.8C70.1 14.8 76.7 11.3 78.7 1.9L87.5-39.4C89.5-48.7 84.9-54.6 75.7-56.6L43.9-63.4C34.7-65.4 28.1-61.8 26.1-52.5L17.3-11.2Z"/>
   <path class="monochrome-4 multicolor-4:custom hierarchical-4:primary SFSymbolsPreviewWireframe" d="M22.8-12.8C21.1-4.7 24.2 0.3 32.2 2L59.9 7.9C67.9 9.6 72.8 6.4 74.5-1.8L82.1-37.7C83.8-45.8 80.7-50.8 72.7-52.5L45-58.4C37-60.1 32.1-56.8 30.4-48.7L22.8-12.8ZM36.3-17.6C34.7-17.9 33.9-19.3 34.2-20.8C34.5-22.3 35.8-23.1 37.4-22.8L65.3-16.9C66.8-16.6 67.6-15.3 67.3-13.8C67-12.3 65.6-11.4 64.2-11.7L36.3-17.6ZM34.3-8.6C32.7-8.9 31.9-10.2 32.2-11.7C32.5-13.2 33.8-14.1 35.4-13.8L48.4-11C49.9-10.7 50.7-9.3 50.4-7.8C50.1-6.3 48.8-5.5 47.3-5.8L34.3-8.6ZM39.1-26.1C37.1-26.5 35.8-28.4 36.2-30.3C36.6-32.4 38.6-33.5 40.6-33.1C42.6-32.7 43.9-30.8 43.5-28.8C43-26.8 41-25.7 39.1-26.1Z"/>
  </g>
  <g id="Ultralight-S" transform="matrix(1 0 0 1 519.311 696)">
   <path class="SFSymbolsPreviewWireframe" d="M5.188-21.6C6.988-12.7 13.288-9.4 22.088-11.2L52.288-17.6C61.088-19.5 65.488-25 63.488-34L55.188-73.2C53.288-82.1 46.988-85.4 38.288-83.6L8.088-77.1C-0.712-75.2-5.012-69.6-3.112-60.8L5.188-21.6Z"/>
   <path class="monochrome-0 multicolor-0:custom hierarchical-0:tertiary SFSymbolsPreviewWireframe" d="M8.088-23.9C9.788-15.8 14.688-12.5 22.688-14.2L50.388-20.1C58.388-21.8 61.588-26.7 59.788-34.9L52.188-70.8C50.488-78.9 45.588-82.2 37.588-80.5L9.888-74.6C1.888-72.9-1.312-67.9 0.488-59.8L8.088-23.9Z"/>
   <path class="monochrome-1 multicolor-1:tintColor hierarchical-1:primary SFSymbolsPreviewWireframe" d="M13.688-19.6C13.688-10.6 19.088-6 28.088-6L58.988-6C67.988-6 73.388-10.5 73.388-19.7L73.388-59.8C73.388-68.9 67.988-73.5 58.988-73.5L28.088-73.5C19.088-73.5 13.688-68.9 13.688-59.8L13.688-19.6Z"/>
   <path class="monochrome-2 multicolor-2:custom hierarchical-2:secondary SFSymbolsPreviewWireframe" d="M17.088-21.3C17.088-13 21.188-8.8 29.388-8.8L57.688-8.8C65.888-8.8 69.988-12.9 69.988-21.3L69.988-58C69.988-66.3 65.888-70.5 57.688-70.5L29.388-70.5C21.188-70.5 17.088-66.3 17.088-58L17.088-21.3Z"/>
   <path class="monochrome-3 multicolor-3:tintColor hierarchical-3:primary SFSymbolsPreviewWireframe" d="M19.088-11.8C17.188-3 21.588 2.7 30.288 4.5L60.488 10.9C69.288 12.8 75.488 9.5 77.388 0.5L85.688-38.7C87.588-47.6 83.188-53.2 74.488-55L44.288-61.4C35.488-63.3 29.288-59.9 27.388-51L19.088-11.8Z"/>
   <path class="monochrome-4 multicolor-4:custom hierarchical-4:primary SFSymbolsPreviewWireframe" d="M22.788-12.8C20.988-4.7 24.188 0.3 32.188 2L59.888 7.9C67.888 9.6 72.788 6.4 74.488-1.8L82.088-37.7C83.788-45.8 80.688-50.8 72.688-52.5L44.988-58.4C36.988-60.1 32.088-56.8 30.388-48.7L22.788-12.8ZM36.288-17.6C34.688-17.9 33.888-19.3 34.188-20.8C34.488-22.3 35.788-23.1 37.388-22.8L65.288-16.9C66.788-16.6 67.588-15.3 67.288-13.8C66.988-12.3 65.588-11.4 64.188-11.7L36.288-17.6ZM34.388-8.6C32.788-8.9 31.988-10.2 32.288-11.7C32.588-13.2 33.888-14.1 35.488-13.8L48.488-11C49.988-10.7 50.788-9.3 50.488-7.8C50.188-6.3 48.888-5.5 47.388-5.8L34.388-8.6ZM39.088-26.1C37.088-26.5 35.788-28.4 36.188-30.3C36.588-32.4 38.588-33.5 40.588-33.1C42.588-32.7 43.888-30.8 43.488-28.8C42.988-26.8 41.088-25.7 39.088-26.1Z"/>
  </g>
 </g>
</svg>
