<?xml version="1.0" encoding="UTF-8"?>
<svg width="1024px" height="1024px" viewBox="0 0 1024 1024" version="1.1" xmlns="http://www.w3.org/2000/svg" xmlns:xlink="http://www.w3.org/1999/xlink">
    <title>画板</title>
    <g id="画板" stroke="none" stroke-width="1" fill="none" fill-rule="evenodd">
        <g id="剪贴板" transform="translate(152.3633, 141.2781)" fill="#000000">
            <path d="M422.304212,7.49324752 C439.422238,14.4574317 453.478465,25.8399393 463.849502,41.1359601 C467.430809,46.4179518 470.52732,51.7350723 473.238666,58.2586728 L217.567093,58.2592894 C168.533562,58.2592894 150.752819,63.364698 132.826893,72.9515881 C114.900967,82.5384782 100.832596,96.6068498 91.2457057,114.532776 C81.6588157,132.458702 76.553407,150.239445 76.553407,199.272975 L76.553407,533.245603 C76.553407,540.963391 76.6798894,547.906917 76.9304211,554.198614 C67.969252,547.885546 60.2451338,539.992439 53.9003042,530.634586 C43.5292664,515.338565 37.2237806,499.747949 32.5643264,455.416204 L2.26229305,167.111615 C-2.39716114,122.779869 0.529063317,106.218961 7.49324752,89.1009353 C14.4574317,71.9829092 25.8399393,57.926683 41.1359601,47.5556452 C56.431981,37.1846074 72.0225971,30.8791215 116.354342,26.2196673 L344.293533,2.26229305 C388.625278,-2.39716114 405.186186,0.529063317 422.304212,7.49324752 Z" id="形状结合"></path>
            <path d="M469.442479,92.721913 C514.018416,92.721913 530.182728,97.3631936 546.479024,106.078548 C562.775321,114.793903 575.564749,127.583332 584.280104,143.879628 C586.936439,148.846543 589.214311,153.801198 591.097659,159.551761 L354.244083,134.657796 C304.592529,129.439207 286.044312,132.716578 266.872122,140.516465 C247.699933,148.316351 231.95696,161.064759 220.341397,178.196303 C208.725835,195.327846 201.663691,212.789336 196.445102,262.440891 L161.928983,590.839825 C160.58607,603.616794 159.80576,614.334097 159.520343,623.532385 C144.77795,614.894675 133.116195,602.752552 124.993374,587.564198 C116.27802,571.267902 111.636739,555.10359 111.636739,510.527653 L111.636739,220.916173 C111.636739,176.340236 116.27802,160.175924 124.993374,143.879628 C133.708729,127.583332 146.498158,114.793903 162.794454,106.078548 C179.09075,97.3631936 195.255062,92.721913 239.830999,92.721913 L469.442479,92.721913 Z" id="形状结合"></path>
            <g id="编组-3" transform="translate(459.7298, 455.8394) rotate(6) translate(-459.7298, -455.8394)translate(216.9382, 182.6988)">
                <path d="M357.389003,-3.76522033e-14 C401.96494,-3.43708229e-14 418.129252,4.64128056 434.425548,13.3566352 C450.721845,22.0719898 463.511273,34.8614185 472.226628,51.1577148 C480.941983,67.4540111 485.583263,83.618323 485.583263,128.19426 L485.583263,418.086911 C485.583263,462.662848 480.941983,478.82716 472.226628,495.123456 C463.511273,511.419753 450.721845,524.209181 434.425548,532.924536 C418.129252,541.63989 401.96494,546.281171 357.389003,546.281171 L128.19426,546.281171 C83.618323,546.281171 67.4540111,541.63989 51.1577148,532.924536 C34.8614185,524.209181 22.0719898,511.419753 13.3566352,495.123456 C4.64128056,478.82716 -3.83594725e-14,462.662848 -4.26609622e-14,418.086911 L-4.3742144e-14,128.19426 C-3.77312747e-14,83.618323 4.64128056,67.4540111 13.3566352,51.1577148 C22.0719898,34.8614185 34.8614185,22.0719898 51.1577148,13.3566352 C67.4540111,4.64128056 83.618323,-3.35705549e-14 128.19426,-3.90295327e-14 L357.389003,-3.76522033e-14 Z M282.318326,408.33138 L112.769874,408.33138 C96.2013319,408.33138 82.7698744,421.762838 82.7698744,438.33138 L82.7698744,443.443682 C82.7698744,460.012224 96.2013319,473.443682 112.769874,473.443682 L282.318326,473.443682 C298.886869,473.443682 312.318326,460.012224 312.318326,443.443682 L312.318326,438.33138 C312.318326,421.762838 298.886869,408.33138 282.318326,408.33138 Z M372.813389,307.903933 L112.769874,307.903933 C96.2013319,307.903933 82.7698744,321.33539 82.7698744,337.903933 L82.7698744,343.016234 C82.7698744,359.584776 96.2013319,373.016234 112.769874,373.016234 L372.813389,373.016234 C389.381931,373.016234 402.813389,359.584776 402.813389,343.016234 L402.813389,337.903933 C402.813389,321.33539 389.381931,307.903933 372.813389,307.903933 Z M137.949791,162.228954 C107.474764,162.228954 82.7698744,186.933844 82.7698744,217.40887 C82.7698744,247.883896 107.474764,272.588786 137.949791,272.588786 C168.424817,272.588786 193.129707,247.883896 193.129707,217.40887 C193.129707,186.933844 168.424817,162.228954 137.949791,162.228954 Z" id="形状结合"></path>
            </g>
        </g>
    </g>
</svg>